<mxfile host="app.diagrams.net" agent="Mozilla/5.0 (Windows NT 10.0; Win64; x64) AppleWebKit/537.36 (KHTML, like Gecko) Chrome/137.0.0.0 Safari/537.36" version="27.1.5">
  <diagram name="Página-1" id="SVvu-2te5QmHvNCxKVa9">
    <mxGraphModel grid="1" page="1" gridSize="10" guides="1" tooltips="1" connect="1" arrows="1" fold="1" pageScale="1" pageWidth="827" pageHeight="1169" math="0" shadow="0">
      <root>
        <mxCell id="0" />
        <mxCell id="1" parent="0" />
        <mxCell id="Mje6cO4_YuGxiV_H9ZcN-1" value="Para cada r,d en router_state.items" style="whiteSpace=wrap;strokeWidth=2;" vertex="1" parent="1">
          <mxGeometry x="191" y="40" width="260" height="78" as="geometry" />
        </mxCell>
        <mxCell id="Mje6cO4_YuGxiV_H9ZcN-2" value="age = now - d.get ts" style="whiteSpace=wrap;strokeWidth=2;" vertex="1" parent="1">
          <mxGeometry x="219" y="168" width="203" height="54" as="geometry" />
        </mxCell>
        <mxCell id="Mje6cO4_YuGxiV_H9ZcN-3" value="age mayor NODE_TIMEOUT &#xa;AND&#xa; r en G AND r no en inactive_routers?" style="rhombus;strokeWidth=2;whiteSpace=wrap;" vertex="1" parent="1">
          <mxGeometry x="170" y="272" width="302" height="302" as="geometry" />
        </mxCell>
        <mxCell id="Mje6cO4_YuGxiV_H9ZcN-4" value="G.remove_node(r)" style="whiteSpace=wrap;strokeWidth=2;" vertex="1" parent="1">
          <mxGeometry x="312" y="647" width="184" height="54" as="geometry" />
        </mxCell>
        <mxCell id="Mje6cO4_YuGxiV_H9ZcN-5" value="inactive_routers.append(r)&#xa;modified = True&#xa;metrics.nodes_removed++" style="whiteSpace=wrap;strokeWidth=2;" vertex="1" parent="1">
          <mxGeometry x="306" y="774" width="198" height="54" as="geometry" />
        </mxCell>
        <mxCell id="Mje6cO4_YuGxiV_H9ZcN-6" value="" style="curved=1;startArrow=none;endArrow=block;exitX=0.5;exitY=1;entryX=0.5;entryY=0;rounded=0;exitDx=0;exitDy=0;" edge="1" parent="1" source="Mje6cO4_YuGxiV_H9ZcN-1" target="Mje6cO4_YuGxiV_H9ZcN-2">
          <mxGeometry relative="1" as="geometry">
            <Array as="points" />
          </mxGeometry>
        </mxCell>
        <mxCell id="Mje6cO4_YuGxiV_H9ZcN-7" value="" style="curved=1;startArrow=none;endArrow=block;exitX=0.5;exitY=1;entryX=0.5;entryY=0;rounded=0;" edge="1" parent="1" source="Mje6cO4_YuGxiV_H9ZcN-2" target="Mje6cO4_YuGxiV_H9ZcN-3">
          <mxGeometry relative="1" as="geometry">
            <Array as="points" />
          </mxGeometry>
        </mxCell>
        <mxCell id="Mje6cO4_YuGxiV_H9ZcN-8" value="Si" style="curved=1;startArrow=none;endArrow=block;exitX=0.72;exitY=1;entryX=0.5;entryY=0;rounded=0;" edge="1" parent="1" source="Mje6cO4_YuGxiV_H9ZcN-3" target="Mje6cO4_YuGxiV_H9ZcN-4">
          <mxGeometry relative="1" as="geometry">
            <Array as="points">
              <mxPoint x="404" y="611" />
            </Array>
          </mxGeometry>
        </mxCell>
        <mxCell id="Mje6cO4_YuGxiV_H9ZcN-9" value="No" style="curved=1;startArrow=none;endArrow=block;exitX=0.3;exitY=1;entryX=0.25;entryY=0;rounded=0;entryDx=0;entryDy=0;" edge="1" parent="1" source="Mje6cO4_YuGxiV_H9ZcN-3" target="Mje6cO4_YuGxiV_H9ZcN-12">
          <mxGeometry relative="1" as="geometry">
            <Array as="points">
              <mxPoint x="230" y="690" />
            </Array>
            <mxPoint x="342.1666666666665" y="1167.333333333334" as="targetPoint" />
          </mxGeometry>
        </mxCell>
        <mxCell id="Mje6cO4_YuGxiV_H9ZcN-10" value="" style="curved=1;startArrow=none;endArrow=block;exitX=0.5;exitY=1;entryX=0.5;entryY=0;rounded=0;" edge="1" parent="1" source="Mje6cO4_YuGxiV_H9ZcN-4" target="Mje6cO4_YuGxiV_H9ZcN-5">
          <mxGeometry relative="1" as="geometry">
            <Array as="points" />
          </mxGeometry>
        </mxCell>
        <mxCell id="Mje6cO4_YuGxiV_H9ZcN-11" value="" style="curved=1;startArrow=none;endArrow=block;exitX=0.5;exitY=1;entryX=0.75;entryY=0;rounded=0;entryDx=0;entryDy=0;exitDx=0;exitDy=0;" edge="1" parent="1" source="Mje6cO4_YuGxiV_H9ZcN-5" target="Mje6cO4_YuGxiV_H9ZcN-12">
          <mxGeometry relative="1" as="geometry">
            <Array as="points">
              <mxPoint x="400" y="850" />
            </Array>
            <mxPoint x="411.5" y="847" as="targetPoint" />
            <mxPoint x="412.5" y="774" as="sourcePoint" />
          </mxGeometry>
        </mxCell>
        <mxCell id="Mje6cO4_YuGxiV_H9ZcN-12" value="Continuar bucle" style="whiteSpace=wrap;strokeWidth=2;" vertex="1" parent="1">
          <mxGeometry x="242" y="876" width="172" height="54" as="geometry" />
        </mxCell>
      </root>
    </mxGraphModel>
  </diagram>
</mxfile>
